<?xml version="1.0" standalone="no"?>
<!DOCTYPE svg PUBLIC "-//W3C//DTD SVG 20010904//EN"
 "http://www.w3.org/TR/2001/REC-SVG-20010904/DTD/svg10.dtd">
<svg version="1.0" xmlns="http://www.w3.org/2000/svg"
 width="902.000000pt" height="875.000000pt" viewBox="0 0 902.000000 875.000000"
 preserveAspectRatio="xMidYMid meet">

<g transform="translate(0.000000,875.000000) scale(0.100000,-0.100000)"
fill="#000000" stroke="none">
<path d="M0 4375 l0 -4375 4510 0 4510 0 0 4375 0 4375 -4510 0 -4510 0 0
-4375z m4825 4335 c1202 -100 2307 -688 3055 -1625 488 -612 800 -1339 909
-2116 59 -423 52 -902 -19 -1319 -125 -732 -429 -1413 -887 -1985 -735 -918
-1750 -1479 -2933 -1622 -206 -25 -735 -25 -940 0 -966 118 -1794 497 -2494
1143 -753 693 -1231 1640 -1363 2694 -25 203 -25 794 0 985 69 519 191 941
395 1370 226 472 486 840 856 1211 352 351 695 598 1135 818 507 253 1062 406
1631 449 107 8 545 6 655 -3z"/>
<path d="M4993 4752 l-111 -287 25 -20 25 -20 -50 -170 c-27 -94 -62 -211 -78
-262 l-28 -92 -41 -6 c-22 -4 -69 -5 -104 -3 l-64 3 -104 255 -104 255 16 73
c25 125 22 123 -59 -31 -55 -102 -57 -109 -37 -114 12 -3 21 -10 21 -17 0 -6
-34 -85 -76 -176 -42 -91 -106 -232 -144 -315 -37 -82 -84 -186 -105 -230 -59
-128 -176 -387 -191 -425 -29 -70 15 1 128 210 151 279 221 408 283 520 29 52
71 130 94 172 23 43 46 80 52 83 5 4 34 -47 64 -112 30 -65 70 -147 88 -183
l32 -65 153 -8 c85 -5 156 -7 158 -4 9 8 184 639 184 662 0 13 -4 35 -10 50
-8 20 1 72 40 243 49 217 66 302 59 302 -2 0 -54 -129 -116 -288z"/>
<path d="M490 4717 c0 -2 -16 -57 -35 -123 -19 -65 -35 -127 -35 -136 0 -17
14 -18 170 -18 140 0 170 -2 170 -14 0 -8 -38 -160 -85 -337 -47 -178 -85
-329 -85 -336 0 -10 38 -13 175 -13 173 0 175 0 180 23 4 12 45 168 93 347
l87 325 180 5 179 5 37 130 c21 71 35 133 33 137 -5 7 -1064 12 -1064 5z"/>
<path d="M1685 4708 c-2 -7 -34 -125 -70 -263 -36 -137 -93 -349 -126 -470
-32 -122 -59 -224 -59 -228 0 -4 87 -6 192 -5 l193 3 50 190 50 190 187 0
c102 0 189 -3 193 -6 3 -4 -14 -85 -39 -181 -25 -96 -46 -180 -46 -186 0 -9
51 -12 189 -12 l190 0 15 53 c8 28 49 183 91 342 43 160 94 354 115 432 21 78
35 145 32 148 -3 3 -88 5 -189 5 -214 0 -186 20 -233 -165 -51 -199 -43 -185
-104 -185 -154 0 -326 14 -326 26 0 7 18 80 40 163 22 82 40 152 40 155 0 4
-86 6 -190 6 -144 0 -192 -3 -195 -12z"/>
<path d="M2906 4712 c-3 -5 -23 -87 -46 -183 -22 -96 -49 -210 -60 -254 -105
-447 -103 -438 -86 -478 9 -23 25 -41 41 -47 32 -12 931 -14 939 -2 12 19 240
841 244 879 3 35 0 46 -22 67 -24 25 -29 26 -160 26 l-135 0 -15 -52 c-8 -29
-42 -152 -75 -273 -33 -121 -73 -265 -88 -320 l-28 -100 -145 -2 c-80 -2 -151
1 -158 6 -8 4 -14 19 -15 32 0 13 34 169 76 346 42 177 77 331 77 343 0 19 -5
20 -169 20 -94 0 -172 -4 -175 -8z"/>
<path d="M5296 4712 c-7 -12 -56 -208 -56 -226 0 -14 44 -16 404 -16 244 0
407 -4 411 -9 8 -15 -116 -440 -136 -465 -16 -20 -27 -21 -204 -24 -103 -2
-191 0 -195 5 -4 4 12 78 35 163 23 85 40 158 38 163 -2 4 -91 7 -198 7 l-194
0 -20 -67 c-10 -38 -43 -158 -71 -268 -29 -110 -55 -208 -58 -217 -4 -17 26
-18 536 -18 389 0 548 3 566 12 24 10 85 105 98 153 3 11 42 146 87 299 102
353 106 410 31 484 l-32 32 -518 0 c-285 0 -521 -4 -524 -8z"/>
<path d="M6553 4708 c-13 -18 -224 -767 -223 -796 0 -32 27 -92 53 -120 49
-53 42 -52 545 -52 l469 0 27 103 c14 56 26 108 26 114 0 10 -79 13 -342 15
l-343 3 -3 25 c-2 13 3 49 12 80 9 30 36 129 60 220 l43 165 344 3 c189 1 347
6 352 11 12 12 66 229 59 236 -3 3 -245 5 -537 5 -414 0 -535 -3 -542 -12z"/>
<path d="M7705 4708 c-18 -60 -40 -136 -76 -268 -23 -85 -75 -271 -115 -412
-41 -142 -74 -264 -74 -273 0 -13 25 -15 197 -13 l198 3 96 346 c52 190 98
353 102 362 6 15 26 17 177 17 93 0 170 -1 170 -2 0 -2 -13 -43 -28 -93 l-28
-90 -129 -5 -128 -5 -29 -105 c-15 -58 -28 -108 -28 -112 0 -5 16 -8 36 -8
l35 0 74 -155 74 -155 191 0 c104 0 190 4 190 9 0 5 -27 65 -61 134 -33 70
-59 134 -57 144 2 10 12 19 23 21 62 12 122 99 163 237 66 222 74 292 43 361
-35 78 -8 74 -539 74 -369 0 -473 -3 -477 -12z"/>
<path d="M6935 4338 c-2 -7 -15 -49 -29 -93 -41 -127 -66 -115 238 -115 199 0
266 3 273 13 6 6 23 50 38 97 15 47 30 91 33 98 3 9 -55 12 -272 12 -213 0
-278 -3 -281 -12z"/>
</g>
</svg>
