<?xml version="1.0" standalone="no"?>
<!DOCTYPE svg PUBLIC "-//W3C//DTD SVG 20010904//EN"
 "http://www.w3.org/TR/2001/REC-SVG-20010904/DTD/svg10.dtd">
<svg version="1.0" xmlns="http://www.w3.org/2000/svg"
 width="1544.000000pt" height="672.000000pt" viewBox="0 0 1544.000000 672.000000"
 preserveAspectRatio="xMidYMid meet">

<g transform="translate(0.000000,672.000000) scale(0.100000,-0.100000)"
fill="#000000" stroke="none">
<path d="M0 3360 l0 -3360 7720 0 7720 0 0 3360 0 3360 -7720 0 -7720 0 0
-3360z m8755 1584 c-9 -22 -39 -100 -66 -174 -27 -74 -63 -169 -79 -210 -16
-41 -49 -129 -74 -195 -24 -66 -60 -160 -80 -209 l-35 -88 45 5 c43 4 46 3 41
-17 -11 -49 -380 -1417 -398 -1473 l-11 -33 -268 0 -269 0 -55 168 c-29 92
-69 220 -87 285 -18 67 -37 116 -43 114 -12 -4 -83 -114 -233 -362 -54 -88
-139 -227 -190 -309 -51 -81 -93 -150 -93 -152 0 -2 20 -4 45 -4 25 0 45 -2
45 -4 0 -2 -71 -111 -158 -243 -167 -251 -400 -612 -421 -651 -30 -57 -16 -6
33 118 207 524 326 831 326 842 0 4 -15 8 -34 8 -19 0 -38 4 -41 10 -3 5 -2
10 3 10 6 0 33 46 61 103 52 106 437 945 591 1287 48 107 97 213 109 235 l22
40 -6 -155 c-4 -85 -10 -202 -15 -260 -11 -139 5 -234 71 -413 57 -157 128
-231 394 -411 88 -61 100 -66 107 -50 4 11 42 154 83 319 42 165 92 354 110
420 38 137 49 185 42 185 -3 0 -35 -13 -72 -30 -37 -16 -68 -30 -70 -30 -2 0
50 96 115 213 l117 212 -43 5 -43 5 129 225 c71 124 191 334 267 467 76 133
139 240 141 238 2 -1 -4 -20 -13 -41z m-6020 -836 c10 -9 -31 -151 -62 -216
-34 -72 -99 -137 -171 -170 l-57 -27 -313 -3 -312 -3 70 -55 c38 -30 70 -62
70 -70 0 -8 -43 -182 -95 -387 -174 -683 -170 -671 -235 -714 -32 -22 -40 -23
-281 -23 -149 0 -249 4 -249 9 0 8 68 284 140 576 20 78 160 620 166 643 l6
22 -307 0 c-242 0 -306 3 -302 13 2 6 21 77 42 157 20 80 43 156 50 170 20 38
60 72 95 79 41 8 1737 8 1745 -1z m723 2 c36 0 43 -3 38 -16 -3 -9 -44 -165
-91 -347 -47 -183 -88 -341 -91 -352 -2 -11 30 17 74 63 l78 82 287 0 287 0 6
28 c4 15 37 143 73 286 l66 259 282 0 c156 0 285 -2 288 -4 2 -3 -14 -72 -36
-155 -22 -82 -98 -383 -170 -669 -190 -764 -188 -756 -204 -782 -9 -13 -30
-33 -48 -43 -29 -18 -52 -20 -279 -20 -170 0 -248 3 -248 11 0 6 36 154 80
328 44 175 80 325 80 332 0 12 -56 14 -337 14 l-338 0 -73 -289 c-40 -158 -79
-304 -87 -322 -7 -18 -29 -43 -47 -54 -31 -19 -50 -20 -285 -20 -196 0 -253 3
-253 13 0 6 52 215 115 462 63 248 156 617 207 822 l93 372 125 4 c69 2 179 2
244 1 66 -2 139 -4 164 -4z m3227 -2 c6 -6 -332 -1333 -353 -1385 -60 -156
-146 -233 -297 -268 -56 -13 -155 -15 -643 -13 l-577 3 -50 23 c-107 49 -154
123 -155 239 0 74 6 99 247 1061 l86 342 284 0 283 0 -6 -27 c-4 -16 -19 -77
-35 -138 -145 -570 -259 -1031 -259 -1051 0 -42 26 -46 263 -42 184 3 227 6
253 20 37 20 91 74 109 108 7 14 74 273 150 577 l137 552 32 3 c38 4 527 0
531 -4z m3948 -13 c71 -22 130 -72 164 -139 22 -42 27 -68 31 -146 4 -94 3
-100 -117 -575 -83 -329 -130 -499 -151 -541 -63 -128 -192 -221 -337 -243
-47 -7 -352 -11 -896 -11 l-825 0 64 248 c36 136 87 334 115 441 48 190 70
240 110 262 12 6 123 10 302 10 264 -1 282 -2 279 -18 -5 -25 -110 -418 -127
-475 -8 -27 -13 -49 -12 -49 1 -1 151 -3 332 -5 373 -3 391 0 434 69 13 21 56
172 108 376 72 288 84 345 75 366 l-12 25 -735 0 c-404 0 -735 2 -735 4 0 3
49 83 108 178 138 220 151 231 295 238 56 3 411 5 788 4 627 -1 690 -2 742
-19z m2383 12 c7 -7 -85 -318 -104 -352 -39 -66 -23 -65 -683 -65 l-596 0 -41
-162 c-101 -394 -143 -575 -140 -613 5 -67 -2 -66 478 -64 234 1 507 1 606 0
l182 -1 -23 -82 c-13 -46 -36 -128 -51 -183 -14 -55 -35 -109 -46 -120 -18
-20 -32 -20 -796 -20 l-777 0 -55 23 c-113 48 -180 145 -180 262 0 66 11 113
155 675 86 340 113 430 141 487 69 136 195 207 389 217 130 7 1534 6 1541 -2z
m1703 -11 c120 -41 191 -157 177 -290 -8 -83 -111 -484 -140 -549 -50 -111
-142 -193 -258 -228 l-67 -21 34 -71 c117 -254 185 -399 209 -445 l26 -52
-327 2 -327 3 -138 305 c-222 494 -236 536 -204 599 28 52 30 53 253 52 148
-1 215 3 233 12 34 17 56 66 82 182 22 95 22 97 3 111 -15 11 -84 14 -369 13
l-351 0 29 -22 c17 -12 46 -36 65 -54 l36 -32 -74 -293 c-122 -485 -200 -777
-215 -806 -8 -15 -24 -36 -36 -47 -21 -19 -38 -20 -291 -23 -148 -2 -269 -1
-269 2 0 3 90 364 199 803 110 439 202 812 206 830 6 28 11 32 43 35 20 2 348
3 727 2 637 0 694 -2 744 -18z m-2023 -638 c-3 -13 -25 -98 -48 -190 l-43
-168 -538 0 -539 0 26 44 c21 36 134 201 215 313 l16 22 459 1 458 0 -6 -22z
m2210 -2709 c23 -63 81 -122 156 -157 31 -15 57 -29 57 -32 1 -3 -25 -16 -56
-30 -71 -30 -125 -84 -154 -155 -12 -30 -26 -55 -29 -55 -3 0 -17 25 -29 55
-27 65 -100 135 -166 161 -25 9 -45 19 -45 23 0 3 33 21 72 40 61 30 76 43
108 93 21 31 41 69 44 83 10 38 22 30 42 -26z"/>
</g>
</svg>
